<?xml version="1.0" encoding="UTF-8"?>
<svg version="1.1" xmlns="http://www.w3.org/2000/svg" width="560" height="560">
<path d="M0 0 C0.88340057 0.00215515 1.76680115 0.0043103 2.67697144 0.00653076 C15.77938482 0.05781338 28.54396427 0.42337543 41.375 3.3125 C42.27847168 3.51117676 43.18194336 3.70985352 44.11279297 3.91455078 C99.01135746 16.32599593 147.46119517 49.23699068 177.93603516 96.74609375 C181.28305961 102.16101105 184.38762806 107.69223151 187.375 113.3125 C187.73787109 113.98893555 188.10074219 114.66537109 188.47460938 115.36230469 C201.92609941 140.86461366 210.41060383 171.25512024 210.578125 200.16796875 C210.58513931 200.9838295 210.59215363 201.79969025 210.59938049 202.64027405 C210.61678916 205.26023951 210.6232332 207.87997881 210.625 210.5 C210.62567474 211.39577759 210.62634949 212.29155518 210.62704468 213.21447754 C210.61080537 226.78082614 210.1830539 239.99273602 207.375 253.3125 C207.20339355 254.13975586 207.03178711 254.96701172 206.85498047 255.81933594 C197.93682214 297.4055291 177.48502574 332.69515901 148.375 363.3125 C147.76398438 363.96476562 147.15296875 364.61703125 146.5234375 365.2890625 C141.5510193 370.45000841 136.01019172 374.89897265 130.375 379.3125 C129.83907227 379.73547363 129.30314453 380.15844727 128.75097656 380.59423828 C112.82120398 393.0668522 95.11463702 402.75177987 76.375 410.3125 C75.68059814 410.59730225 74.98619629 410.88210449 74.27075195 411.17553711 C68.87320714 413.31165674 64.19541318 414.24256602 58.375 413.3125 C55.44076805 411.51603146 53.90294645 410.3683929 52.375 407.3125 C52.26948884 405.14027182 52.22891536 402.96479712 52.21728516 400.79003906 C52.21220444 400.1197316 52.20712372 399.44942413 52.20188904 398.75880432 C52.19117441 397.29923058 52.18255853 395.83964031 52.17576981 394.38004303 C52.16395613 392.05721084 52.1444893 389.73456254 52.12265015 387.4118042 C52.06117286 380.80568749 52.00733106 374.19958295 51.97363281 367.59326172 C51.95246209 363.5512791 51.91696886 359.50962142 51.87287521 355.46782684 C51.85887187 353.93875762 51.8500289 352.40963077 51.84682083 350.88050079 C51.81901645 338.87892042 51.22990164 326.55121578 45.4375 315.75 C44.95410156 314.82058594 44.47070312 313.89117187 43.97265625 312.93359375 C42.30287812 310.1941778 40.43278563 307.77028716 38.375 305.3125 C39.95295092 303.73454908 41.76212396 303.84771392 43.94140625 303.515625 C70.40564599 299.31644427 98.43692837 291.59013766 115.2109375 268.8203125 C132.05623206 243.4420303 137.20563789 210.47594436 131.41015625 180.7421875 C128.54918561 167.66752325 122.14052399 156.84456501 114.0546875 146.28125 C112.375 143.3125 112.375 143.3125 112.640625 140.91015625 C113.12789063 139.65525391 113.12789063 139.65525391 113.625 138.375 C118.40828053 122.16835753 115.6047496 105.00174879 110.375 89.3125 C97.96514219 88.49426762 87.47500884 91.54590547 76.4375 97 C75.42055054 97.49922974 75.42055054 97.49922974 74.38305664 98.00854492 C70.97147419 99.75197138 67.93816882 101.57078395 64.9765625 104.0078125 C60.27055646 107.71921873 56.43005086 110.39360755 50.22998047 110.22900391 C43.14284865 109.35788763 36.26915099 107.7192009 29.34594727 106.0078125 C20.25842536 103.88099334 10.97411464 104.07259671 1.6875 104.0625 C0.59492889 104.06049088 0.59492889 104.06049088 -0.51971436 104.05844116 C-14.29367053 104.06391286 -28.47837236 104.41061575 -41.734375 108.53125 C-47.25493737 110.13473285 -51.33965529 111.27002555 -56.5703125 108.51953125 C-60.05394415 106.40916948 -63.33837246 104.03323973 -66.64306641 101.65625 C-79.272811 93.09328939 -94.53056955 88.80658938 -109.625 88.3125 C-110.27535371 90.83224253 -110.92037493 93.35315935 -111.5625 95.875 C-111.74490234 96.57947266 -111.92730469 97.28394531 -112.11523438 98.00976562 C-113.91508606 105.11099862 -114.84021779 112.03595304 -114.875 119.375 C-114.87894775 120.10871826 -114.88289551 120.84243652 -114.88696289 121.59838867 C-114.82171461 127.82791793 -113.77505668 133.42361844 -112.18359375 139.45703125 C-111.6146656 142.36532831 -111.47999618 143.62446721 -112.625 146.3125 C-113.80012849 148.01769838 -115.03756251 149.68058001 -116.3125 151.3125 C-132.38917519 172.9973177 -134.38884451 199.83933263 -130.85571289 225.93359375 C-126.91984807 249.48935301 -117.03435697 270.84482905 -97.375 285.125 C-79.2961819 296.90072015 -59.77461698 301.42846132 -38.625 304.3125 C-38.625 307.84793286 -39.33126645 308.58763073 -41.375 311.375 C-45.49314973 317.35797226 -48.28893638 323.45875682 -49.1875 330.6875 C-50.625 334.3125 -50.625 334.3125 -53.05078125 335.66015625 C-55.88983086 336.70928849 -58.69210906 337.56877264 -61.625 338.3125 C-62.25994385 338.4868457 -62.8948877 338.66119141 -63.54907227 338.84082031 C-74.6906369 341.37233894 -87.03510133 339.82800933 -96.78515625 334.02734375 C-104.8730917 328.43279881 -110.55561788 320.54551714 -116.046875 312.53125 C-121.27690142 305.17814355 -129.57881402 298.13408694 -138.625 296.3125 C-145.81536177 295.61421043 -145.81536177 295.61421043 -152.625 297.3125 C-152.05909307 300.61598173 -151.22710687 302.03488175 -148.625 304.125 C-147.99335938 304.64578125 -147.36171875 305.1665625 -146.7109375 305.703125 C-145.32693135 306.77093499 -143.91473918 307.80322566 -142.4765625 308.796875 C-132.70465719 315.72292719 -127.37725563 325.30004922 -122.625 336 C-117.24444095 348.01591513 -109.539283 356.30895806 -97.16796875 361.3046875 C-91.64876701 363.22679756 -86.35931229 364.43768295 -80.4921875 364.4453125 C-79.52023438 364.44660156 -78.54828125 364.44789063 -77.546875 364.44921875 C-76.54140625 364.44535156 -75.5359375 364.44148438 -74.5 364.4375 C-73.51773438 364.44136719 -72.53546875 364.44523437 -71.5234375 364.44921875 C-64.84015137 364.44042495 -58.2690052 364.02861055 -51.625 363.3125 C-51.52601636 369.48717586 -51.4534764 375.66138843 -51.40527344 381.83666992 C-51.38517603 383.93668667 -51.35789334 386.03664758 -51.32324219 388.13647461 C-51.2746423 391.15752958 -51.25201238 394.17784377 -51.234375 397.19921875 C-51.21372986 398.13585861 -51.19308472 399.07249847 -51.17181396 400.03752136 C-51.17034185 404.32796292 -51.22288973 406.66266293 -53.52441406 410.38208008 C-57.18079039 413.74225763 -60.00158745 413.64544113 -64.81201172 413.58935547 C-69.63972515 413.11420992 -73.77685002 411.31021664 -78.1875 409.375 C-79.14277588 408.96822021 -80.09805176 408.56144043 -81.08227539 408.14233398 C-106.68297199 397.05218827 -128.51440145 381.53545834 -148.625 362.3125 C-149.64013672 361.35923828 -149.64013672 361.35923828 -150.67578125 360.38671875 C-155.81083245 355.44054299 -160.23669078 349.92056291 -164.625 344.3125 C-165.05329102 343.7659375 -165.48158203 343.219375 -165.92285156 342.65625 C-173.84686036 332.45416113 -180.51082571 321.68491227 -186.625 310.3125 C-186.99222168 309.63026367 -187.35944336 308.94802734 -187.73779297 308.24511719 C-197.61792866 289.50580863 -204.44358292 268.24910404 -207.625 247.3125 C-207.79942627 246.17949463 -207.97385254 245.04648926 -208.15356445 243.87915039 C-209.64135015 233.27165476 -209.98609941 222.82739648 -209.9375 212.125 C-209.93534485 211.2674411 -209.9331897 210.4098822 -209.93096924 209.52633667 C-209.87880954 196.57279121 -209.41012471 184.00696331 -206.625 171.3125 C-206.32698486 169.90653564 -206.32698486 169.90653564 -206.02294922 168.47216797 C-201.57963434 147.97300967 -194.59697884 128.7582047 -184.625 110.3125 C-184.30563477 109.7138916 -183.98626953 109.1152832 -183.65722656 108.49853516 C-175.95320853 94.15029041 -166.36457442 81.50514386 -155.625 69.3125 C-155.18623535 68.81057129 -154.7474707 68.30864258 -154.29541016 67.79150391 C-149.07501056 61.83786925 -143.76112053 56.31455205 -137.625 51.3125 C-137.1084082 50.88356445 -136.59181641 50.45462891 -136.05957031 50.01269531 C-97.2105486 17.79483733 -50.67930231 -0.2225935 0 0 Z " fill="#1A1818" transform="translate(279.625,73.6875)"/>
<path d="M0 0 C0.66 0.33 1.32 0.66 2 1 C-5.26 8.26 -12.52 15.52 -20 23 C-20.66 22.67 -21.32 22.34 -22 22 C-15.62801479 14.93771639 -9.3207065 8.10058875 -2 2 C-1.34 1.34 -0.68 0.68 0 0 Z " fill="#575656" transform="translate(144,123)"/>
</svg>
