<?xml version="1.0" standalone="no"?>
<!DOCTYPE svg PUBLIC "-//W3C//DTD SVG 20010904//EN"
 "http://www.w3.org/TR/2001/REC-SVG-20010904/DTD/svg10.dtd">
<svg version="1.0" xmlns="http://www.w3.org/2000/svg"
 width="820.000000pt" height="229.000000pt" viewBox="0 0 820.000000 229.000000"
 preserveAspectRatio="xMidYMid meet">

<g transform="translate(0.000000,229.000000) scale(0.100000,-0.100000)"
fill="#000000" stroke="none">
<path d="M800 1567 c-160 -46 -244 -147 -244 -292 0 -119 61 -207 184 -264 48
-23 68 -26 160 -26 96 0 111 3 159 28 29 15 55 27 57 27 2 0 4 -11 4 -25 0
-24 2 -25 65 -25 l66 0 -3 158 -3 157 -150 0 -150 0 0 -55 0 -55 63 -3 c34 -2
62 -6 62 -11 0 -15 -46 -49 -84 -61 -52 -17 -140 -8 -174 17 -44 33 -67 81
-66 143 0 65 21 109 66 142 64 45 216 23 234 -34 5 -16 18 -18 100 -18 66 0
94 4 94 12 0 6 -9 31 -21 54 -41 85 -141 134 -284 140 -55 2 -107 -1 -135 -9z"/>
<path d="M3430 1515 l0 -55 85 0 85 0 0 55 0 55 -85 0 -85 0 0 -55z"/>
<path d="M4250 1280 l0 -290 100 0 100 0 0 290 0 290 -100 0 -100 0 0 -290z
m178 3 l2 -273 -80 0 -80 0 0 275 0 276 78 -3 77 -3 3 -272z"/>
<path d="M6000 1510 l0 -60 90 0 90 0 0 60 0 60 -90 0 -90 0 0 -60z m160 5 l0
-45 -75 0 -75 0 0 38 c0 21 3 42 7 45 3 4 37 7 75 7 l68 0 0 -45z"/>
<path d="M5660 1478 l0 -63 -37 0 -38 0 -3 -52 -3 -53 39 0 40 0 4 -119 c6
-176 31 -201 198 -201 l91 0 -3 58 c-2 44 -6 56 -18 54 -8 -2 -29 -1 -47 3
l-33 6 0 99 0 100 51 0 50 0 -3 53 -3 52 -45 0 -45 0 -5 60 -5 60 -92 3 -93 3
0 -63z m170 -13 l0 -65 55 0 55 0 0 -35 0 -35 -55 0 -55 0 0 -104 c0 -121 8
-136 71 -136 39 0 39 0 39 -39 0 -38 -1 -39 -40 -46 -65 -11 -157 4 -188 30
-26 23 -27 26 -30 159 l-4 136 -44 0 c-44 0 -44 0 -44 35 0 35 0 35 45 35 l45
0 0 65 0 65 75 0 75 0 0 -65z"/>
<path d="M6290 1481 l0 -60 -42 -3 -43 -3 0 -50 0 -50 43 -3 42 -3 0 -117 c0
-73 5 -126 13 -142 21 -43 71 -60 175 -60 l92 0 0 60 0 60 -29 -6 c-16 -3 -38
-1 -50 5 -19 11 -21 20 -21 106 l0 95 51 0 50 0 -3 53 -3 52 -47 3 -48 3 0 60
0 59 -90 0 -90 0 0 -59z m166 -1 c3 -85 -1 -80 54 -80 l50 0 0 -34 0 -35 -52
-3 -52 -3 -1 -101 c0 -118 8 -134 66 -134 39 0 39 0 39 -40 0 -34 -3 -40 -26
-46 -36 -9 -151 4 -184 21 -39 20 -50 62 -50 191 l0 114 -40 0 c-39 0 -40 1
-40 35 0 34 1 35 40 35 l40 0 0 58 c0 32 3 62 7 66 4 4 39 5 78 4 l70 -3 1
-45z"/>
<path d="M7250 1481 l0 -60 -42 -3 -43 -3 0 -50 0 -50 43 -3 42 -3 0 -117 c0
-73 5 -126 13 -142 21 -43 71 -60 175 -60 l93 0 -3 58 c-3 55 -4 57 -30 54
-15 -2 -36 2 -47 8 -19 10 -21 20 -21 105 l0 95 51 0 50 0 -3 53 -3 52 -47 3
-48 3 0 60 0 59 -90 0 -90 0 0 -59z m161 22 c1 -27 4 -64 7 -90 1 -9 19 -13
52 -13 l50 0 0 -34 0 -35 -52 -3 -53 -3 0 -101 c0 -118 8 -134 66 -134 39 0
39 0 39 -39 0 -25 -5 -41 -15 -44 -27 -11 -162 1 -192 17 -43 21 -53 60 -53
192 l0 114 -40 0 c-39 0 -40 1 -40 35 0 34 1 35 40 35 l40 0 0 58 c0 32 3 62
7 65 3 4 37 7 75 7 67 0 68 0 69 -27z"/>
<path d="M4758 1415 c-26 -9 -50 -20 -53 -25 -10 -16 -22 -11 -28 10 -5 19
-12 21 -89 18 l-83 -3 -3 -212 -2 -213 95 0 95 0 0 135 c0 122 2 137 20 155
24 24 87 27 116 6 17 -13 19 -29 22 -155 l4 -141 89 0 89 0 0 158 c0 186 -12
227 -75 256 -51 25 -139 29 -197 11z m181 -23 c68 -34 75 -54 79 -227 l4 -155
-81 0 -81 0 0 133 c0 115 -2 136 -17 150 -27 24 -68 30 -108 17 -54 -18 -65
-49 -65 -185 l0 -115 -75 0 -75 0 0 195 0 195 75 0 c73 0 75 -1 75 -25 0 -26
14 -33 26 -14 27 44 179 64 243 31z"/>
<path d="M5200 1414 c-30 -8 -65 -21 -77 -29 -34 -23 -56 -72 -49 -110 12 -61
69 -93 209 -115 43 -7 84 -18 94 -25 24 -18 9 -43 -31 -50 -45 -9 -88 5 -101
33 -9 20 -17 22 -98 22 l-87 0 6 -27 c10 -45 37 -76 87 -101 88 -45 276 -40
356 9 69 42 87 126 37 178 -33 35 -60 45 -166 62 -93 14 -120 24 -120 43 0 35
113 27 126 -9 5 -12 24 -15 90 -15 51 0 84 4 84 10 0 29 -32 79 -61 97 -69 42
-199 54 -299 27z m276 -31 c33 -17 64 -56 64 -78 0 -3 -29 -5 -65 -5 -52 0
-69 4 -85 20 -35 35 -150 23 -150 -15 0 -25 42 -43 139 -60 132 -23 181 -53
181 -113 0 -95 -140 -155 -306 -131 -84 12 -131 34 -155 73 -31 51 -26 56 47
56 60 0 68 -3 94 -30 24 -26 35 -30 79 -30 38 0 56 5 71 20 11 11 20 24 20 28
0 21 -41 40 -120 56 -47 9 -102 21 -122 26 -91 26 -107 134 -25 176 56 30 80
33 187 31 84 -2 113 -7 146 -24z"/>
<path d="M7737 1420 c-83 -21 -164 -83 -186 -143 -16 -42 -13 -124 5 -163 84
-177 464 -177 527 -1 6 15 -2 17 -78 17 -72 0 -88 -3 -105 -20 -31 -31 -118
-28 -154 5 -14 13 -26 29 -26 34 0 7 68 12 188 13 l187 3 -2 40 c-6 94 -51
159 -134 194 -58 25 -165 35 -222 21z m230 -38 c63 -33 113 -111 113 -178 l0
-24 -184 0 c-102 0 -187 -3 -190 -8 -2 -4 2 -21 9 -39 26 -62 119 -82 185 -41
25 15 53 22 98 23 71 2 77 -7 35 -50 -94 -95 -339 -91 -430 7 -29 31 -53 90
-53 130 1 79 71 164 160 193 67 22 203 15 257 -13z"/>
<path d="M7760 1321 c-19 -10 -40 -32 -47 -50 l-13 -31 115 0 c63 0 115 2 115
4 0 23 -26 60 -52 76 -41 25 -73 25 -118 1z m125 -26 c14 -13 25 -29 25 -35 0
-6 -34 -10 -90 -10 -99 0 -113 11 -64 49 38 30 98 28 129 -4z"/>
<path d="M1445 1402 c-67 -22 -139 -93 -155 -150 -25 -96 19 -190 112 -239 49
-26 62 -28 168 -28 108 0 118 2 168 29 44 25 92 76 92 100 0 3 -35 6 -79 6
-56 0 -82 -4 -91 -14 -35 -43 -134 -43 -176 -1 -51 51 -41 54 164 57 l187 3 3
30 c10 81 -54 171 -144 205 -67 25 -178 26 -249 2z m198 -112 c15 -17 25 -35
22 -40 -8 -13 -192 -13 -200 0 -9 15 18 51 50 66 44 21 95 10 128 -26z"/>
<path d="M2025 1405 c-55 -20 -111 -69 -135 -116 -22 -42 -26 -121 -9 -166 14
-38 66 -91 114 -115 58 -30 185 -36 261 -12 196 61 222 292 44 389 -48 25 -67
30 -145 32 -61 2 -103 -2 -130 -12z m182 -111 c51 -32 50 -156 -2 -190 -38
-25 -103 -20 -133 10 -30 29 -40 107 -20 146 28 53 100 68 155 34z"/>
<path d="M2704 1409 c-17 -5 -43 -20 -57 -33 -28 -26 -34 -24 -31 12 1 21 -2
22 -82 22 l-84 0 0 -210 0 -210 85 0 85 0 0 110 c0 127 11 160 61 181 18 7 56
13 83 14 l51 0 3 39 c6 69 -3 86 -46 85 -20 0 -51 -5 -68 -10z"/>
<path d="M2950 1404 c-81 -35 -123 -101 -123 -189 0 -137 89 -213 239 -203 45
3 72 10 93 26 35 25 42 19 34 -31 -8 -52 -35 -72 -96 -71 -39 0 -54 5 -68 22
-15 19 -27 22 -98 22 -44 0 -82 -4 -85 -9 -11 -18 41 -77 88 -101 43 -21 64
-24 155 -24 116 -1 164 11 212 51 56 48 59 62 59 298 l0 215 -80 0 c-73 0 -80
-2 -80 -20 0 -25 -2 -25 -46 5 -30 21 -48 25 -103 25 -36 -1 -82 -8 -101 -16z
m222 -121 c50 -54 19 -152 -53 -167 -37 -7 -93 15 -108 42 -17 31 -13 94 7
120 34 45 114 47 154 5z"/>
<path d="M3760 1405 c-52 -16 -95 -57 -105 -97 l-7 -28 77 0 c70 0 80 2 101
25 18 19 33 25 67 25 52 0 92 -26 82 -52 -8 -21 -18 -24 -133 -38 -159 -18
-212 -53 -212 -138 0 -38 5 -49 35 -78 25 -23 49 -35 81 -40 64 -9 154 0 194
21 30 16 34 16 42 1 7 -13 26 -16 95 -16 77 0 84 2 78 18 -5 9 -11 87 -14 173
-7 172 -10 182 -76 217 -42 22 -244 27 -305 7z m215 -257 c-12 -53 -23 -67
-64 -78 -43 -11 -96 2 -105 26 -8 22 11 53 37 59 141 33 140 33 132 -7z"/>
<path d="M6000 1205 l0 -215 90 0 90 0 -2 213 -3 212 -87 3 -88 3 0 -216z
m160 0 l0 -195 -75 0 -75 0 0 195 0 195 75 0 75 0 0 -195z"/>
<path d="M6617 1414 c-11 -11 -8 -284 3 -325 27 -98 168 -140 288 -84 50 23
52 23 52 5 0 -18 7 -20 90 -20 l90 0 -2 213 -3 212 -90 0 -90 0 -5 -138 c-6
-158 -10 -167 -86 -167 -63 0 -68 12 -74 169 l-5 136 -80 3 c-44 2 -84 0 -88
-4z m163 -148 c0 -133 0 -135 26 -155 47 -37 134 -17 154 35 6 14 10 77 10
140 l0 114 75 0 75 0 0 -195 0 -195 -75 0 c-73 0 -75 1 -75 25 0 14 -4 25 -10
25 -5 0 -10 -4 -10 -9 0 -5 -21 -19 -47 -32 -56 -27 -154 -29 -202 -4 -62 31
-71 62 -71 233 l0 152 75 0 75 0 0 -134z"/>
<path d="M3430 1200 l0 -210 85 0 85 0 0 210 0 210 -85 0 -85 0 0 -210z"/>
<path d="M1725 881 c-61 -15 -105 -65 -105 -119 0 -17 -7 -21 -37 -24 l-38 -3
-3 -52 -3 -53 40 0 41 0 0 -160 0 -160 90 0 90 0 0 160 0 160 50 0 50 0 0 55
0 55 -50 0 c-27 0 -50 4 -50 8 0 19 27 32 68 32 l43 0 -3 53 -3 52 -75 2 c-41
1 -88 -2 -105 -6z m170 -51 c0 -34 -1 -35 -39 -37 -57 -3 -66 -9 -66 -43 0
-29 1 -30 50 -30 l50 0 0 -35 0 -35 -50 0 -50 0 0 -159 0 -159 -64 -4 c-104
-5 -96 -18 -96 162 l0 159 -37 3 c-35 3 -38 6 -38 33 0 27 4 30 35 33 39 4 50
15 50 53 0 30 33 77 64 89 11 5 59 8 106 7 l85 -2 0 -35z"/>
<path d="M1987 883 c-4 -3 -7 -32 -7 -64 l0 -58 108 -3 107 -3 3 -222 2 -223
95 0 95 0 0 225 0 224 108 3 107 3 0 60 0 60 -306 3 c-168 1 -308 -1 -312 -5z"/>
<path d="M3620 600 l0 -290 85 0 85 0 0 120 c0 136 10 169 59 190 17 7 43 9
60 5 53 -12 61 -34 61 -182 l0 -133 86 0 85 0 -3 174 -3 175 -30 31 c-37 38
-92 54 -173 47 -45 -3 -74 -12 -102 -31 l-40 -26 0 105 0 105 -85 0 -85 0 0
-290z"/>
<path d="M5380 600 l0 -290 90 0 90 0 0 290 0 290 -90 0 -90 0 0 -290z m160 1
l0 -269 -52 -4 c-29 -1 -63 -2 -75 0 l-23 3 0 270 0 269 75 0 75 0 0 -269z"/>
<path d="M1171 734 c-87 -23 -164 -93 -177 -159 -19 -105 24 -190 121 -240 53
-27 67 -30 154 -30 73 1 104 5 131 19 106 56 144 114 138 211 -5 76 -33 123
-98 164 -76 49 -172 61 -269 35z m235 -32 c83 -43 132 -127 120 -205 -15 -93
-89 -157 -204 -177 -57 -11 -77 -10 -132 4 -88 23 -134 57 -166 122 -21 43
-25 62 -20 97 12 77 69 142 153 173 57 21 197 13 249 -14z"/>
<path d="M1189 611 c-24 -25 -29 -37 -29 -81 0 -83 38 -130 106 -130 55 0 83
27 108 104 10 30 -12 93 -41 115 -40 33 -107 29 -144 -8z m137 -4 c20 -18 28
-35 31 -73 5 -43 2 -54 -22 -82 -22 -27 -34 -32 -69 -32 -72 0 -112 67 -86
144 22 67 94 88 146 43z"/>
<path d="M4485 737 c-22 -8 -50 -19 -61 -25 -19 -10 -23 -9 -27 9 -5 18 -12
20 -89 17 l-83 -3 -3 -212 -2 -213 89 0 89 0 4 136 c3 129 4 137 27 155 25 20
85 25 111 9 12 -7 16 -40 20 -152 l5 -143 90 0 90 0 0 160 c0 178 -9 211 -71
247 -41 24 -138 31 -189 15z m180 -27 c54 -27 65 -67 65 -232 l0 -146 -47 -4
c-27 -1 -60 -2 -75 0 l-28 3 0 119 c0 142 -7 164 -54 180 -47 15 -91 5 -116
-27 -18 -23 -20 -41 -20 -149 l0 -123 -32 -3 c-18 -2 -53 -2 -78 0 l-45 4 2
191 3 192 70 3 c69 3 70 3 70 -23 0 -30 4 -31 41 -4 17 12 42 25 57 30 39 12
152 6 187 -11z"/>
<path d="M4981 740 c-50 -11 -117 -48 -147 -82 -25 -27 -54 -99 -54 -131 0
-88 77 -184 171 -211 146 -44 309 8 364 115 37 71 26 164 -26 224 -62 70 -197
108 -308 85z m224 -40 c69 -36 115 -104 115 -171 0 -129 -103 -212 -260 -212
-152 0 -260 86 -260 205 1 87 55 158 146 193 64 24 198 16 259 -15z"/>
<path d="M4985 616 c-30 -30 -41 -87 -26 -135 14 -47 39 -70 82 -77 95 -15
156 81 115 181 -18 42 -42 55 -101 55 -35 0 -52 -6 -70 -24z m118 2 c36 -19
46 -40 47 -96 0 -69 -29 -102 -90 -102 -61 0 -90 33 -90 102 0 29 6 60 13 69
29 37 80 49 120 27z"/>
<path d="M5791 740 c-138 -29 -226 -155 -191 -273 17 -60 94 -131 161 -151
218 -65 429 79 379 258 -34 123 -193 198 -349 166z m191 -27 c103 -40 154
-113 146 -209 -6 -70 -43 -119 -122 -158 -50 -25 -70 -30 -135 -30 -154 1
-261 86 -261 209 0 84 56 156 146 189 55 20 174 20 226 -1z"/>
<path d="M5829 636 c-38 -12 -69 -61 -69 -111 0 -41 30 -97 60 -113 32 -16 96
-9 121 14 43 39 49 137 11 184 -23 28 -79 40 -123 26z m84 -17 c26 -12 45 -41
48 -74 6 -83 -24 -125 -91 -125 -61 0 -90 33 -90 102 0 29 6 60 13 69 29 37
76 48 120 28z"/>
<path d="M6344 741 c-100 -26 -156 -90 -162 -186 -5 -81 10 -125 58 -169 65
-58 179 -75 255 -36 22 11 41 20 42 20 13 0 -1 -64 -17 -80 -28 -28 -102 -28
-130 0 -17 17 -33 20 -111 20 -89 0 -90 0 -83 -22 12 -40 38 -67 84 -90 40
-20 60 -23 170 -23 115 0 129 2 170 25 91 51 103 96 98 365 l-3 170 -80 3
c-64 2 -82 0 -91 -13 -11 -15 -15 -15 -44 0 -37 19 -113 27 -156 16z m133 -22
c15 -6 38 -19 49 -30 l22 -20 6 25 c6 25 10 26 77 26 l70 0 -3 -214 c-3 -246
-5 -252 -93 -296 -42 -21 -64 -24 -145 -25 -120 0 -181 17 -220 62 -17 19 -28
38 -25 44 4 5 36 9 72 9 55 0 71 -4 91 -22 19 -18 35 -23 79 -22 71 0 93 23
93 95 0 27 -3 49 -6 49 -3 0 -21 -12 -41 -27 -61 -47 -200 -34 -256 25 -95 99
-66 256 58 313 45 21 129 25 172 8z"/>
<path d="M6383 625 c-26 -18 -46 -83 -37 -119 11 -44 50 -71 104 -71 56 0 95
28 105 76 8 38 -11 95 -38 114 -28 19 -106 19 -134 0z m132 -20 c19 -18 25
-35 25 -65 0 -58 -33 -90 -94 -90 -36 0 -48 5 -65 26 -23 29 -28 83 -10 115
23 44 107 52 144 14z"/>
<path d="M2620 725 c-58 -18 -128 -77 -151 -129 -51 -112 12 -237 140 -281 66
-22 197 -20 265 5 51 20 126 85 126 110 0 17 -155 13 -170 -4 -35 -43 -134
-43 -176 -1 -51 51 -41 54 164 57 l187 3 -1 46 c-3 91 -65 166 -160 195 -59
18 -165 17 -224 -1z m180 -104 c14 -10 26 -28 28 -40 3 -21 1 -22 -94 -19
-108 3 -122 12 -79 52 43 40 96 42 145 7z"/>
<path d="M3225 731 c-69 -17 -143 -78 -165 -135 -18 -48 -14 -128 8 -172 24
-47 43 -64 102 -95 56 -28 187 -38 256 -19 83 23 154 92 154 150 0 18 -6 20
-80 20 -77 0 -81 -1 -90 -25 -12 -32 -71 -59 -111 -50 -16 4 -40 21 -55 38
-23 27 -26 38 -22 86 6 71 37 101 104 101 36 0 50 -6 72 -27 24 -24 36 -28 99
-30 39 -2 74 1 78 7 10 16 -21 75 -54 103 -58 48 -199 71 -296 48z"/>
<path d="M6750 729 c0 -6 38 -93 85 -194 47 -101 85 -190 85 -198 0 -24 -23
-36 -75 -39 l-50 -3 0 -60 0 -60 90 1 c101 1 152 14 183 47 23 25 242 498 235
510 -7 13 -170 8 -181 -5 -5 -7 -26 -61 -47 -120 -21 -60 -41 -108 -45 -108
-4 0 -22 42 -40 93 -56 157 -46 147 -150 147 -58 0 -90 -4 -90 -11z m204 -86
c16 -43 37 -102 48 -130 11 -29 23 -53 27 -53 9 0 17 22 72 173 l31 87 74 0
c41 0 74 -4 74 -8 0 -9 -156 -354 -194 -430 -36 -71 -79 -91 -193 -92 l-83 0
0 45 c0 43 1 45 29 45 42 0 78 16 91 39 9 17 -4 52 -75 207 -47 102 -85 188
-85 190 0 2 35 4 78 4 l77 0 29 -77z"/>
</g>
</svg>
