<?xml version="1.0" encoding="UTF-8"?>
<svg version="1.1" xmlns="http://www.w3.org/2000/svg" width="1024" height="1024">
<path d="M0 0 C3.56851446 3.10992332 6.98951915 6.35484883 10.39648438 9.64013672 C11.17507813 10.35556641 11.95367188 11.07099609 12.75585938 11.80810547 C47.24692667 44.40338715 60.58619183 96.74230376 62.56287932 142.49122024 C62.80028946 151.63571713 62.7821089 160.77985332 62.74468124 169.92672408 C62.73147533 173.99377043 62.73612727 178.06080683 62.73838806 182.12786865 C62.73994563 189.14031144 62.73069758 196.15266917 62.71367455 203.16509056 C62.68907976 213.30331012 62.68145859 223.44148941 62.67771057 233.57973555 C62.67117781 250.03649728 62.65130383 266.49321388 62.62280273 282.94995117 C62.59517927 298.91674582 62.57402098 314.88352806 62.5612793 330.8503418 C62.5604753 331.84793437 62.55967131 332.84552695 62.55884296 333.87334961 C62.55260308 341.67754677 62.54673287 349.48174419 62.54097927 357.28594172 C62.51278264 395.40404817 62.45240334 433.52204137 62.39648438 471.64013672 C11.90648437 471.64013672 -38.58351563 471.64013672 -90.60351562 471.64013672 C-90.64089844 451.67126953 -90.67828125 431.70240234 -90.71679688 411.12841797 C-90.74707937 398.4636979 -90.77809025 385.79898588 -90.8125 373.13427734 C-90.83054732 366.47778379 -90.84841086 359.82128979 -90.8659668 353.16479492 C-90.86927833 351.91355031 -90.86927833 351.91355031 -90.87265676 350.63702804 C-90.90792617 337.20963874 -90.93284114 323.7822495 -90.95386264 310.3548312 C-90.97570559 296.55159155 -91.00883571 282.74841146 -91.05221719 268.94522256 C-91.07858842 260.44335632 -91.09639041 251.94156414 -91.10286167 243.43965908 C-91.10816041 237.59176651 -91.12452537 231.74396675 -91.14918128 225.8961241 C-91.16304482 222.53351987 -91.17077097 219.17121999 -91.16852379 215.80856705 C-91.15331588 182.52242887 -94.48856016 147.91829041 -118.35351562 122.45263672 C-135.61457605 105.98824062 -157.49948546 102.88367304 -180.33789062 103.35888672 C-203.81868605 104.20200325 -223.33851677 113.17207739 -239.79882812 129.86669922 C-259.70950566 151.29149672 -264.73485153 183.0821755 -264.76173401 211.28910828 C-264.76667199 212.40923319 -264.77160996 213.52935811 -264.77669758 214.6834262 C-264.7919624 218.40817142 -264.80040311 222.13289956 -264.80883789 225.85766602 C-264.81842509 228.53905987 -264.82839348 231.22044981 -264.83883667 233.90184021 C-264.86050785 239.66003911 -264.87868612 245.41824035 -264.8944416 251.17645836 C-264.91722607 259.50171008 -264.94535662 267.82693711 -264.97476088 276.15216777 C-265.02233217 289.66173697 -265.06562443 303.17131632 -265.10620117 316.6809082 C-265.14560952 329.79842925 -265.18705941 342.91594126 -265.23120117 356.03344727 C-265.23395068 356.85126012 -265.23670018 357.66907297 -265.23953301 358.51166803 C-265.26105418 364.90820868 -265.28269316 371.30474893 -265.30436933 377.70128906 C-265.4104504 409.01422 -265.50626398 440.3271747 -265.60351562 471.64013672 C-314.11351562 471.64013672 -362.62351562 471.64013672 -412.60351562 471.64013672 C-412.60351562 308.62013672 -412.60351562 145.60013672 -412.60351562 -22.35986328 C-364.09351563 -22.35986328 -315.58351563 -22.35986328 -265.60351562 -22.35986328 C-265.27351562 -1.56986328 -264.94351563 19.22013672 -264.60351562 40.64013672 C-261.63351562 36.68013672 -258.66351562 32.72013672 -255.60351562 28.64013672 C-253.58498149 26.1690056 -251.57089064 23.73148172 -249.47851562 21.32763672 C-248.96554932 20.73571533 -248.45258301 20.14379395 -247.92407227 19.53393555 C-241.09474163 11.70629744 -233.80475409 5.04110332 -225.60351562 -1.35986328 C-224.60964844 -2.14361328 -223.61578125 -2.92736328 -222.59179688 -3.73486328 C-207.84031542 -15.00124193 -190.37257009 -23.95929735 -172.60351562 -29.35986328 C-171.50620117 -29.6934082 -171.50620117 -29.6934082 -170.38671875 -30.03369141 C-114.94091496 -46.34674852 -45.01552131 -38.17546494 0 0 Z " fill="#FDFEFE" transform="translate(819.603515625,410.35986328125)"/>
<path d="M0 0 C50.49 0 100.98 0 153 0 C153 163.02 153 326.04 153 494 C102.18 494 51.36 494 -1 494 C-1.03311921 399.58325582 -1.03311921 399.58325582 -1.04234314 353.03904724 C-1.0424812 352.34418469 -1.04261925 351.64932214 -1.04276149 350.93340315 C-1.04575405 335.83400416 -1.04852428 320.73460514 -1.05106533 305.63520608 C-1.05231272 298.23100652 -1.05360927 290.82680697 -1.05493164 283.42260742 C-1.0550624 282.68578073 -1.05519316 281.94895404 -1.05532788 281.18979927 C-1.05959307 257.28539574 -1.06710724 233.38099456 -1.07629722 209.47659246 C-1.08572005 184.92206763 -1.09188317 160.3675441 -1.09391499 135.8130175 C-1.09420317 132.34888053 -1.0945288 128.88474357 -1.09487724 125.42060661 C-1.09494467 124.73878085 -1.09501209 124.05695509 -1.09508156 123.35446793 C-1.0962656 112.35659726 -1.1009099 101.35873062 -1.10683203 90.36086159 C-1.11270522 79.31783872 -1.11489027 68.27481892 -1.11350138 57.23179431 C-1.11285766 51.24295275 -1.11387926 45.25412306 -1.11920547 39.26528358 C-1.12403768 33.79229081 -1.12433984 28.31931797 -1.12089889 22.84632432 C-1.12047302 20.85708644 -1.12177026 18.86784736 -1.12488318 16.87861187 C-1.12884419 14.1931867 -1.12676526 11.50783535 -1.12304783 8.82241154 C-1.12698835 7.6399386 -1.12698835 7.6399386 -1.13100848 6.43357733 C-1.1141458 1.1141458 -1.1141458 1.1141458 0 0 Z " fill="#FCFDFD" transform="translate(157,388)"/>
<path d="M0 0 C18.00528189 14.80582042 30.63499732 36.94639777 33.09033203 60.29663086 C34.15539258 78.93425456 32.29309861 95.33944966 24.09033203 112.29663086 C23.64947266 113.21831055 23.20861328 114.13999023 22.75439453 115.08959961 C11.56877728 136.99734169 -8.41253578 152.03241773 -31.47216797 159.67163086 C-41.22849628 162.41067458 -51.75968156 164.05581683 -61.90966797 163.29663086 C-62.98087891 163.21670898 -64.05208984 163.13678711 -65.15576172 163.05444336 C-88.79400201 160.60307029 -111.41218613 149.57407336 -126.90966797 131.29663086 C-143.66672076 109.88971525 -150.6210255 84.83395062 -147.62548828 57.72485352 C-144.0491067 34.38249167 -131.49482939 12.6958476 -112.73388672 -1.72680664 C-78.12655999 -25.94714872 -33.693981 -26.53786946 0 0 Z " fill="#FCFDFD" transform="translate(289.90966796875,161.703369140625)"/>
<path d="M0 0 C48.18 0 96.36 0 146 0 C146.33 21.45 146.66 42.9 147 65 C146.01 65 145.02 65 144 65 C144 43.88 144 22.76 144 1 C97.47 1.33 50.94 1.66 3 2 C2.67 163.7 2.34 325.4 2 492 C1.67 492 1.34 492 1 492 C0.67 329.64 0.34 167.28 0 0 Z " fill="#F1FAFE" transform="translate(408,389)"/>
<path d="M0 0 C50.16 0 100.32 0 152 0 C151.67 0.66 151.34 1.32 151 2 C149.85725412 1.99861731 149.85725412 1.99861731 148.69142246 1.99720669 C130.18141781 1.9751527 111.67141577 1.95858906 93.16140079 1.94818783 C84.21021618 1.94302459 75.25904032 1.93598137 66.30786133 1.92456055 C58.50889612 1.91461455 50.70993724 1.90814678 42.91096586 1.90591151 C38.77887814 1.90460425 34.64680856 1.90151749 30.51472664 1.89426994 C26.62998474 1.88751106 22.74526854 1.88538277 18.86052132 1.88689232 C17.43060161 1.88661593 16.00068109 1.88461002 14.57076645 1.88079453 C12.62681949 1.87585941 10.68285891 1.87760195 8.73890686 1.87974548 C7.64842576 1.87882369 6.55794466 1.8779019 5.43441868 1.87695217 C3.05186349 1.72463315 3.05186349 1.72463315 2 3 C1.90111354 5.59534779 1.86823066 8.16409336 1.87695217 10.75994205 C1.87579833 11.58671063 1.87464448 12.41347921 1.87345567 13.26530138 C1.87078146 16.07174902 1.87531774 18.87814077 1.87974548 21.68458557 C1.87930995 23.70247614 1.87843536 25.72036666 1.87715632 27.73825687 C1.87490793 33.31137426 1.87893731 38.88447263 1.88393438 44.4575876 C1.88823379 50.4569444 1.88679282 56.45630005 1.8860321 62.45565796 C1.88550654 72.85928639 1.88862195 83.26290967 1.89426994 93.66653633 C1.90018047 104.58165072 1.90403458 115.49676261 1.90512276 126.41187859 C1.9051915 127.08973342 1.90526024 127.76758826 1.90533106 128.46598415 C1.90566938 131.90825715 1.90597077 135.35053015 1.90625793 138.79280316 C1.90836014 163.1947969 1.9151025 187.59678739 1.92456055 211.9987793 C1.93374016 235.70971662 1.94082613 259.42065305 1.94506836 283.1315918 C1.94519989 283.86205361 1.94533141 284.59251543 1.94546692 285.34511245 C1.94678541 292.68049538 1.94806123 300.01587833 1.94930578 307.35126128 C1.95184222 322.2952043 1.95466347 337.23914727 1.95765686 352.18309021 C1.95779415 352.870237 1.95793144 353.5573838 1.95807289 354.26535322 C1.96727854 400.17690353 1.98314507 446.08845193 2 492 C1.34 492 0.68 492 0 492 C0 329.64 0 167.28 0 0 Z " fill="#E1FEFE" transform="translate(157,389)"/>
<path d="M0 0 C48.18 0 96.36 0 146 0 C146.33 21.45 146.66 42.9 147 65 C146.01 65 145.02 65 144 65 C144 43.88 144 22.76 144 1 C96.48 1 48.96 1 0 1 C0 0.67 0 0.34 0 0 Z " fill="#D7F2F5" transform="translate(408,389)"/>
<path d="M0 0 C2.91691525 -0.05401695 5.83282724 -0.09368066 8.75 -0.125 C9.575 -0.14175781 10.4 -0.15851563 11.25 -0.17578125 C12.04921875 -0.18222656 12.8484375 -0.18867188 13.671875 -0.1953125 C14.4050293 -0.20578613 15.13818359 -0.21625977 15.89355469 -0.22705078 C18.29896076 0.03222456 19.91251494 0.80774075 22 2 C22 2.33 22 2.66 22 3 C14.08 3 6.16 3 -2 3 C-1.34 2.67 -0.68 2.34 0 2 C0 1.34 0 0.68 0 0 Z " fill="#CDE6EE" transform="translate(635,510)"/>
<path d="M0 0 C-1.50079114 3.97578005 -3.76268791 5.47307054 -7.3125 7.6875 C-8.25738281 8.28949219 -9.20226562 8.89148438 -10.17578125 9.51171875 C-12.86664651 10.92972658 -15.00625054 11.59101783 -18 12 C-13.92779659 7.36611336 -6.379187 0 0 0 Z " fill="#CAE5EA" transform="translate(612,398)"/>
<path d="M0 0 C0.66 0.33 1.32 0.66 2 1 C-4.62354189 9.2078473 -4.62354189 9.2078473 -10 11 C-11.80348078 13.01317219 -11.80348078 13.01317219 -13 15 C-13.66 14.67 -14.32 14.34 -15 14 C-10.75802296 8.34403061 -5.5954014 4.28075369 0 0 Z " fill="#C2DBE3" transform="translate(180,158)"/>
<path d="M0 0 C0 4.60480627 -2.9167451 6.79312403 -6 10 C-8.6875 12.5 -8.6875 12.5 -11 14 C-11.99 13.67 -12.98 13.34 -14 13 C-4.58997722 3.40546697 -4.58997722 3.40546697 0 0 Z " fill="#BBD8DF" transform="translate(588,414)"/>
<path d="M0 0 C7.00897689 1.72931766 13.50288191 3.83967342 20 7 C19.01 7.66 18.02 8.32 17 9 C17 8.34 17 7.68 17 7 C16.1028125 7.309375 16.1028125 7.309375 15.1875 7.625 C13 8 13 8 10 6 C10 5.34 10 4.68 10 4 C8.02 4.33 6.04 4.66 4 5 C3.67 4.01 3.34 3.02 3 2 C2.01 2 1.02 2 0 2 C0 1.34 0 0.68 0 0 Z " fill="#BBD1DD" transform="translate(767,383)"/>
<path d="M0 0 C0.99 0 1.98 0 3 0 C3.144375 1.11375 3.28875 2.2275 3.4375 3.375 C3.78372035 6.82142047 3.78372035 6.82142047 5 9 C5.07116382 11.37402501 5.08409085 13.75000677 5.0625 16.125 C5.05347656 17.40632812 5.04445313 18.68765625 5.03515625 20.0078125 C5.02355469 20.99523437 5.01195312 21.98265625 5 23 C4.67 23 4.34 23 4 23 C3.32861379 19.73011701 2.66370737 16.45894951 2 13.1875 C1.80921875 12.25873047 1.6184375 11.32996094 1.421875 10.37304688 C1.24140625 9.48037109 1.0609375 8.58769531 0.875 7.66796875 C0.62363281 6.43469849 0.62363281 6.43469849 0.3671875 5.17651367 C0 3 0 3 0 0 Z " fill="#B5D2E0" transform="translate(723,570)"/>
<path d="M0 0 C7.13393752 0.51537952 14.01812817 1.44005901 21 3 C21 3.33 21 3.66 21 4 C14.25 5.125 14.25 5.125 12 4 C10.63875 3.7834375 10.63875 3.7834375 9.25 3.5625 C6.01164742 3.0020159 3.09016343 2.1036298 0 1 C0 0.67 0 0.34 0 0 Z " fill="#C5DEE7" transform="translate(730,375)"/>
<path d="M0 0 C0.66 1.32 1.32 2.64 2 4 C0.8553125 4.7734375 0.8553125 4.7734375 -0.3125 5.5625 C-2.83343369 7.84892823 -3.47333529 8.69440347 -4.625 11.6875 C-5.07875 12.780625 -5.5325 13.87375 -6 15 C-6.99 15.33 -7.98 15.66 -9 16 C-7.51637716 9.73581469 -3.75837844 5.08486495 0 0 Z " fill="#BAD4DD" transform="translate(161,176)"/>
<path d="M0 0 C0.66 0 1.32 0 2 0 C0.36959185 6.01077136 -1.27147357 12.01663928 -3 18 C-4.125 16.5 -4.125 16.5 -5 14 C-4.57598348 11.2226918 -3.81108065 8.70360217 -3 6 C-2.34 6 -1.68 6 -1 6 C-1.33 5.01 -1.66 4.02 -2 3 C-1.34 2.01 -0.68 1.02 0 0 Z " fill="#BEDCE3" transform="translate(562,564)"/>
<path d="M0 0 C7 8.20689655 7 8.20689655 7 13 C6.34 13 5.68 13 5 13 C5 12.01 5 11.02 5 10 C3.02 10.99 3.02 10.99 1 12 C1.020625 10.948125 1.04125 9.89625 1.0625 8.8125 C1.01103198 5.67295096 0.73482813 3.03116604 0 0 Z " fill="#C9E0E7" transform="translate(855,454)"/>
<path d="M0 0 C0.33 0.66 0.66 1.32 1 2 C1.66 2.33 2.32 2.66 3 3 C0.69 4.98 -1.62 6.96 -4 9 C-4 7.02 -4 5.04 -4 3 C-2.68 2.67 -1.36 2.34 0 2 C0 1.34 0 0.68 0 0 Z " fill="#CBE3EB" transform="translate(580,534)"/>
<path d="M0 0 C0.66 0 1.32 0 2 0 C0.41037341 4.03520597 -1.28232318 8.01811282 -3 12 C-3.33 12 -3.66 12 -4 12 C-4 9.69 -4 7.38 -4 5 C-2.68 4.34 -1.36 3.68 0 3 C0 2.01 0 1.02 0 0 Z " fill="#BCD9DF" transform="translate(568,552)"/>
<path d="M0 0 C0.33 1.32 0.66 2.64 1 4 C-0.9375 6.25 -0.9375 6.25 -3 8 C-3.99 7.67 -4.98 7.34 -6 7 C-4.02 4.69 -2.04 2.38 0 0 Z " fill="#CDE5E8" transform="translate(570,432)"/>
<path d="M0 0 C3.96 1.98 3.96 1.98 8 4 C7.34 4.66 6.68 5.32 6 6 C5.34 5.67 4.68 5.34 4 5 C4 5.66 4 6.32 4 7 C3.34 7 2.68 7 2 7 C1.34 4.69 0.68 2.38 0 0 Z " fill="#CAE4E9" transform="translate(272,151)"/>
<path d="M0 0 C2.97 0.99 5.94 1.98 9 3 C8.01 3.66 7.02 4.32 6 5 C5.01 4.67 4.02 4.34 3 4 C3 3.34 3 2.68 3 2 C2.01 2 1.02 2 0 2 C0 1.34 0 0.68 0 0 Z " fill="#D8E9F0" transform="translate(767,383)"/>
<path d="M0 0 C0.99 0 1.98 0 3 0 C1.81323934 4.10801767 1.10551666 5.89448334 -2 9 C-1.34 6.03 -0.68 3.06 0 0 Z " fill="#C4DFE2" transform="translate(309,276)"/>
<path d="M0 0 C-3.20380017 2.13586678 -4.01939967 2.23132175 -7.6875 2.125 C-8.89986328 2.09792969 -8.89986328 2.09792969 -10.13671875 2.0703125 C-11.05904297 2.03550781 -11.05904297 2.03550781 -12 2 C-7.66032699 -0.21504143 -4.80574417 -1.54470348 0 0 Z " fill="#BADAE2" transform="translate(219,144)"/>
<path d="M0 0 C0.33 0 0.66 0 1 0 C1.05422947 1.4370809 1.09289723 2.87475462 1.125 4.3125 C1.14820313 5.11300781 1.17140625 5.91351562 1.1953125 6.73828125 C1 9 1 9 -1 12 C-2.45606519 7.47907032 -1.27032841 4.48351204 0 0 Z " fill="#D2E1E6" transform="translate(559,570)"/>
<path d="M0 0 C0 3 0 3 -1.25 4.75 C-1.8275 5.1625 -2.405 5.575 -3 6 C-4.32 5.67 -5.64 5.34 -7 5 C-4.69 3.35 -2.38 1.7 0 0 Z " fill="#B6D5E1" transform="translate(601,404)"/>
<path d="M0 0 C0.99 0 1.98 0 3 0 C3 2.31 3 4.62 3 7 C2.34 7 1.68 7 1 7 C0.67 4.69 0.34 2.38 0 0 Z " fill="#C8DFE3" transform="translate(723,570)"/>
<path d="M0 0 C0.66 0 1.32 0 2 0 C2 0.66 2 1.32 2 2 C2.99 2 3.98 2 5 2 C5.33 3.32 5.66 4.64 6 6 C3.36 4.68 0.72 3.36 -2 2 C-1.34 1.34 -0.68 0.68 0 0 Z " fill="#BCDAE1" transform="translate(686,519)"/>
<path d="M0 0 C0.66 1.32 1.32 2.64 2 4 C0.625 5.5 0.625 5.5 -1 7 C-1.66 7 -2.32 7 -3 7 C-2.38722388 4.03824877 -1.74627478 2.61941217 0 0 Z " fill="#CDE3E7" transform="translate(161,176)"/>
<path d="" fill="#16517F" transform="translate(0,0)"/>
<path d="" fill="#185280" transform="translate(0,0)"/>
<path d="" fill="#0A0090" transform="translate(0,0)"/>
<path d="" fill="#155B44" transform="translate(0,0)"/>
<path d="" fill="#150098" transform="translate(0,0)"/>
<path d="" fill="#114873" transform="translate(0,0)"/>
<path d="" fill="#0D2C6C" transform="translate(0,0)"/>
<path d="" fill="#143373" transform="translate(0,0)"/>
<path d="" fill="#155B44" transform="translate(0,0)"/>
<path d="" fill="#155B46" transform="translate(0,0)"/>
<path d="" fill="#0A0090" transform="translate(0,0)"/>
<path d="" fill="#100B9E" transform="translate(0,0)"/>
<path d="" fill="#0B0096" transform="translate(0,0)"/>
<path d="" fill="#165181" transform="translate(0,0)"/>
<path d="" fill="#0B0096" transform="translate(0,0)"/>
<path d="" fill="#0F0B9E" transform="translate(0,0)"/>
<path d="" fill="#0A0090" transform="translate(0,0)"/>
<path d="" fill="#0C0091" transform="translate(0,0)"/>
<path d="" fill="#125F45" transform="translate(0,0)"/>
<path d="" fill="#0D436E" transform="translate(0,0)"/>
<path d="" fill="#110097" transform="translate(0,0)"/>
<path d="" fill="#13009A" transform="translate(0,0)"/>
<path d="" fill="#1C02A1" transform="translate(0,0)"/>
<path d="" fill="#00288E" transform="translate(0,0)"/>
<path d="" fill="#3060C6" transform="translate(0,0)"/>
<path d="" fill="#325FC6" transform="translate(0,0)"/>
<path d="" fill="#1C04A0" transform="translate(0,0)"/>
<path d="" fill="#00288E" transform="translate(0,0)"/>
<path d="" fill="#110098" transform="translate(0,0)"/>
<path d="" fill="#130098" transform="translate(0,0)"/>
<path d="" fill="#0D446C" transform="translate(0,0)"/>
<path d="" fill="#125E4B" transform="translate(0,0)"/>
<path d="" fill="#1C02A3" transform="translate(0,0)"/>
<path d="" fill="#1A039F" transform="translate(0,0)"/>
<path d="" fill="#100097" transform="translate(0,0)"/>
<path d="" fill="#1C02A3" transform="translate(0,0)"/>
<path d="" fill="#1A03A3" transform="translate(0,0)"/>
</svg>
