<?xml version="1.0" encoding="UTF-8"?>
<svg version="1.1" xmlns="http://www.w3.org/2000/svg" width="1024" height="497">
<path d="M0 0 C0.51997559 0.4228125 1.03995117 0.845625 1.57568359 1.28125 C33.84419832 27.59695735 54.09337806 63.4293502 58.58984375 105.015625 C62.10310794 143.62785764 51.37631396 183.50521033 26.71875 213.78125 C17.73695065 224.5065751 8.37887 233.83079227 -3 242 C-3.59538574 242.43296387 -4.19077148 242.86592773 -4.80419922 243.31201172 C-27.96570776 260 -27.96570776 260 -38 260 C-39.13274357 229.58373741 -39.13274357 229.58373741 -33.03125 222.81640625 C-30.625 221.4375 -30.625 221.4375 -27.94140625 220.2890625 C-24.43015008 218.75026497 -21.56115957 216.65860153 -18.5625 214.3125 C-18.01247314 213.88348389 -17.46244629 213.45446777 -16.89575195 213.01245117 C6.55441389 194.36603716 22.3321217 166.44574211 26.52734375 136.734375 C30.29132699 103.67988842 22.16920243 71.48539043 1.66015625 45.13671875 C-17.99472519 21.47933339 -45.60767604 4.91651944 -76.46386719 1.22705078 C-108.44652 -1.63624024 -139.66547283 5.51211849 -165.16015625 25.62109375 C-190.89915326 47.18237185 -207.13503931 75.1835664 -210.75 108.875 C-210.85284757 110.58226963 -210.93669656 112.29080724 -211 114 C-211.0515625 114.8559375 -211.103125 115.711875 -211.15625 116.59375 C-212.11742903 145.10872776 -201.87434683 173.94541876 -184 196 C-183.22011719 196.96292969 -182.44023437 197.92585937 -181.63671875 198.91796875 C-161.50020648 222.28423258 -131.55544848 236.50415099 -101 239 C-94.33649704 239.44722332 -87.67359948 239.72385106 -81 240 C-81.33 249.9 -81.66 259.8 -82 270 C-111.70864191 270.46908382 -111.70864191 270.46908382 -126 267 C-126.77972168 266.81195801 -127.55944336 266.62391602 -128.36279297 266.43017578 C-166.51722889 256.85538521 -200.1361043 232.39171558 -220.625 198.75 C-228.9952433 184.54056353 -234.98033026 170.00043723 -239 154 C-239.17934082 153.30455078 -239.35868164 152.60910156 -239.54345703 151.89257812 C-244.48978208 131.75361816 -244.46135534 106.00082567 -239 86 C-238.79068848 85.20883789 -238.58137695 84.41767578 -238.36572266 83.60253906 C-228.06576175 45.33304524 -205.82789446 13.20019481 -172 -8 C-171.33645508 -8.41717285 -170.67291016 -8.8343457 -169.98925781 -9.26416016 C-119.00024818 -40.7647632 -46.91776859 -38.62968351 0 0 Z " fill="#0085C7" transform="translate(272,61)"/>
<path d="M0 0 C21.11450613 19.7028197 34.76907867 46.60943111 41.52636719 74.42431641 C41.77193359 75.40078125 41.77193359 75.40078125 42.02246094 76.39697266 C46.95482206 96.90092011 46.7716161 122.00898485 41.52636719 142.42431641 C41.22037598 143.62870361 41.22037598 143.62870361 40.90820312 144.85742188 C37.91443037 156.29433104 33.99478456 166.95222757 28.52636719 177.42431641 C28.2032959 178.06288574 27.88022461 178.70145508 27.54736328 179.359375 C10.21736579 213.40732846 -21.32939519 239.35243243 -57.41113281 251.42431641 C-84.79790341 260.19050683 -116.55204515 262.299175 -144.47363281 254.42431641 C-145.62871338 254.10285645 -145.62871338 254.10285645 -146.80712891 253.77490234 C-186.09419954 242.48428635 -218.47969 216.27423754 -238.28149414 180.59301758 C-243.8820976 170.15513182 -248.12269623 159.31486568 -251.34863281 147.92431641 C-251.55198242 147.20711426 -251.75533203 146.48991211 -251.96484375 145.75097656 C-253.32593983 140.65925058 -253.98812879 135.67189183 -254.47363281 130.42431641 C-249.90507331 131.42641188 -245.38189254 132.53702537 -240.87011719 133.77050781 C-239.26568428 134.20822902 -237.65746721 134.63229746 -236.04589844 135.04296875 C-222.61297105 138.59541159 -222.61297105 138.59541159 -219.23144531 143.06689453 C-217.23738481 146.95201655 -216.21306531 151.09784968 -215.11621094 155.3046875 C-214.04428755 158.84056851 -212.36837336 162.00567713 -210.59863281 165.23681641 C-210.25791748 165.85919189 -209.91720215 166.48156738 -209.56616211 167.12280273 C-193.89387987 195.02205558 -168.12073642 214.43539637 -137.53613281 223.17431641 C-105.86943553 231.73820304 -73.01359689 227.5370799 -44.52612305 211.18994141 C-38.75147795 207.74044191 -33.49554339 203.90690208 -28.47363281 199.42431641 C-27.65894531 198.73982422 -26.84425781 198.05533203 -26.00488281 197.35009766 C-2.43978205 177.09429345 10.51726294 148.06521523 13.52636719 117.42431641 C15.85798372 84.81461734 4.75574143 53.84314821 -16.24316406 28.97509766 C-35.95173762 6.43622106 -64.59327518 -7.96581857 -94.47363281 -10.57568359 C-127.41250422 -12.22310607 -159.37061117 -3.87973427 -184.47363281 18.42431641 C-185.01181641 18.9020752 -185.55 19.37983398 -186.10449219 19.87207031 C-207.79481372 39.5217725 -219.17091916 65.020672 -224.47363281 93.42431641 C-225.02712402 93.2833252 -225.58061523 93.14233398 -226.15087891 92.99707031 C-228.71614193 92.34521055 -231.28237564 91.69725084 -233.84863281 91.04931641 C-234.71875 90.82759766 -235.58886719 90.60587891 -236.48535156 90.37744141 C-242.45012793 88.87520143 -248.43114868 87.57425888 -254.47363281 86.42431641 C-251.97762958 62.84138935 -242.72032349 39.38113747 -228.47363281 20.42431641 C-227.86261719 19.60447266 -227.25160156 18.78462891 -226.62207031 17.93994141 C-200.29250914 -16.08261912 -163.9464068 -36.22877397 -121.53222656 -41.97412109 C-76.14349489 -46.97973383 -33.34130978 -30.27895085 0 0 Z " fill="#DF0023" transform="translate(949.4736328125,72.57568359375)"/>
<path d="M0 0 C0.18977181 6.00944054 0.19120624 11.99032981 0 18 C-0.02271973 18.78407227 -0.04543945 19.56814453 -0.06884766 20.37597656 C-0.63134988 32.411983 -0.63134988 32.411983 -4.35498047 36.48046875 C-7.69746145 39.18121771 -11.42083179 41.11479673 -15.24023438 43.05126953 C-38.43056801 55.55371633 -53.91553317 83.71314873 -61.25 108.0625 C-69.90714535 140.81536656 -64.60601592 173.76356096 -48 203 C-43.08201374 210.64908108 -37.22717735 217.39675865 -31 224 C-30.38769531 224.67675781 -29.77539062 225.35351562 -29.14453125 226.05078125 C-9.96611964 246.45595693 19.74904454 258.06936855 47.359375 259.38671875 C77.0528759 260.17921866 107.45663207 252.20726762 130 232 C131.25876953 230.91912109 131.25876953 230.91912109 132.54296875 229.81640625 C152.50599661 212.3902836 163.8398477 190.64175488 170.40136719 165.28857422 C171.21540335 162.17651266 172.10303826 159.08906918 173 156 C173.57363281 156.10957031 174.14726563 156.21914063 174.73828125 156.33203125 C184.12734702 158.08446689 193.56307788 159.53312091 203 161 C198.46681392 199.90420886 177.42058509 234.73766725 147.13671875 259.20703125 C114.41172846 284.47031136 73.65372099 294.6653197 32.79296875 289.68359375 C-6.26874676 284.40583134 -42.51200517 263.11113385 -66.4609375 231.82421875 C-90.83194811 199.16029481 -101.47231942 158.72240968 -95.8125 118.25 C-91.44772634 89.90136141 -79.58818827 63.83861832 -61 42 C-60.16339844 41.01 -59.32679688 40.02 -58.46484375 39 C-52.83936949 32.58107533 -46.75446088 27.19860576 -40 22 C-39.07574219 21.26007813 -38.15148437 20.52015625 -37.19921875 19.7578125 C-11.93793253 0 -11.93793253 0 0 0 Z " fill="#0CA446" transform="translate(625,176)"/>
<path d="M0 0 C1.25733837 5.44846627 0.78988242 10.32549278 0.1875 15.8125 C0.10435547 16.66392578 0.02121094 17.51535156 -0.06445312 18.39257812 C-0.32990764 20.93667873 -0.65186775 23.46597275 -1 26 C-1.09869385 26.82113281 -1.1973877 27.64226562 -1.29907227 28.48828125 C-1.98659229 32.77833564 -2.44149452 34.50926296 -5.80078125 37.4609375 C-6.95964844 38.09257812 -8.11851562 38.72421875 -9.3125 39.375 C-10.5892222 40.11716503 -11.86126496 40.86742884 -13.12890625 41.625 C-13.7748877 42.00914062 -14.42086914 42.39328125 -15.08642578 42.7890625 C-41.0032159 59.18958291 -55.81126796 87.07903609 -63 116 C-69.86298259 146.96551473 -62.4946351 179.3621465 -46 206 C-42.68726099 210.97214104 -38.97400493 215.54516924 -35 220 C-34.53899902 220.52142578 -34.07799805 221.04285156 -33.60302734 221.58007812 C-14.05508074 243.31059547 14.93086361 257.13673317 44.06738281 259.21923828 C78.8579403 260.533646 110.19922887 250.85005736 136.12890625 227.1875 C156.76943697 207.70585078 166.61412272 183.14889725 173 156 C173.57363281 156.10957031 174.14726562 156.21914063 174.73828125 156.33203125 C184.12734702 158.08446689 193.56307788 159.53312091 203 161 C202.51499423 167.92076549 201.37795828 174.34284252 199.4375 181 C199.17428955 181.90572754 198.9110791 182.81145508 198.63989258 183.74462891 C189.61217303 213.66970216 171.06013365 241.17705517 146 260 C145.20207031 260.60199219 144.40414062 261.20398438 143.58203125 261.82421875 C123.00533121 276.76162742 98.35872451 287.14945724 73 290 C72.04480469 290.10957031 71.08960938 290.21914063 70.10546875 290.33203125 C28.86349634 294.38596039 -10.58085341 282.0291916 -42.62890625 256.0859375 C-73.87107509 230.27937758 -92.78932626 193.02242912 -96.6875 152.8125 C-99.28177713 112.92548911 -87.77486678 74.07820288 -61.8203125 43.42578125 C-59.59378893 40.90212375 -57.31366949 38.44390916 -55 36 C-54.18015625 35.11570313 -53.3603125 34.23140625 -52.515625 33.3203125 C-41.30700478 21.61426831 -17.05764434 0 0 0 Z " fill="#F4C300" transform="translate(293,176)"/>
<path d="M0 0 C28.41646334 26.57888883 44.3628548 65.53705604 45.703125 104.06982422 C46.35771067 145.6360145 31.38832088 183.60638033 2.578125 213.47607422 C1.31935547 214.84699219 1.31935547 214.84699219 0.03515625 216.24560547 C-12.94751839 229.97463659 -31.28641102 242.78063925 -49.421875 248.47607422 C-50.081875 248.47607422 -50.741875 248.47607422 -51.421875 248.47607422 C-51.6048414 241.80118877 -51.62605417 235.15087681 -51.421875 228.47607422 C-51.39915527 227.72551758 -51.37643555 226.97496094 -51.35302734 226.20166016 C-51.11468026 221.57184977 -50.44887287 217.658037 -48.421875 213.47607422 C-44.68707395 210.16475471 -40.68643306 207.95538463 -36.31933594 205.59033203 C-12.63213673 191.68035041 3.1815832 164.48555886 10.05810547 138.56494141 C18.17131719 105.9749698 12.85048476 73.51052769 -4.06884766 44.66113281 C-7.67453963 38.83815497 -11.86873165 33.58011495 -16.421875 28.47607422 C-16.88287598 27.95464844 -17.34387695 27.43322266 -17.81884766 26.89599609 C-36.61480324 6.0014312 -65.23588039 -8.65867614 -93.421875 -10.52392578 C-129.75153826 -12.14869927 -161.07957979 -2.35471434 -188.375 22.12451172 C-208.50955493 41.30295649 -218.33420783 65.8693877 -224.421875 92.47607422 C-224.99550781 92.36650391 -225.56914062 92.25693359 -226.16015625 92.14404297 C-235.54922202 90.39160732 -244.98495288 88.9429533 -254.421875 87.47607422 C-253.93686923 80.55530873 -252.79983328 74.1332317 -250.859375 67.47607422 C-250.46455933 66.11748291 -250.46455933 66.11748291 -250.06176758 64.73144531 C-241.13749009 35.14926166 -223.05437137 8.22355357 -198.421875 -10.52392578 C-197.57238281 -11.18908203 -196.72289062 -11.85423828 -195.84765625 -12.53955078 C-136.02424661 -57.96599637 -54.08841266 -49.17559247 0 0 Z " fill="#000000" transform="translate(617.421875,72.52392578125)"/>
<path d="M0 0 C42.50949913 -0.91418278 81.14388719 10.03273361 112.59301758 39.75195312 C114.06584931 41.16397675 115.53314426 42.58176931 117 44 C117.66515625 44.61359375 118.3303125 45.2271875 119.015625 45.859375 C139.23269505 64.94277757 156.7057522 97.3383478 157.9921875 125.296875 C157.99476563 125.85890625 157.99734375 126.4209375 158 127 C153.73701408 126.28321476 149.51556062 125.45259354 145.29833984 124.50830078 C143.74242327 124.16419431 142.1825664 123.83751935 140.61962891 123.52685547 C135.17009856 122.39856776 129.6383645 121.20743417 125 118 C122.16407691 113.5919891 121.00598759 109.25108472 119.68554688 104.22607422 C118.48733325 100.33529364 116.61520412 96.82305959 114.6875 93.25 C114.30319824 92.537229 113.91889648 91.82445801 113.52294922 91.09008789 C109.91528173 84.58079705 105.76578603 78.72865281 101 73 C99.84564453 71.60007813 99.84564453 71.60007813 98.66796875 70.171875 C78.88129782 47.28454642 48.98231949 33.37182649 19 31 C12.66099684 30.80135611 6.34301723 30.90807221 0 31 C0 20.77 0 10.54 0 0 Z " fill="#0CA447" transform="translate(669,166)"/>
<path d="M0 0 C29.6514405 -0.46818064 29.6514405 -0.46818064 44 3 C45.15363037 3.27408691 45.15363037 3.27408691 46.33056641 3.55371094 C65.60884906 8.31561487 84.32326546 16.74283645 100 29 C101.33417969 30.00546875 101.33417969 30.00546875 102.6953125 31.03125 C132.93226658 54.6566252 152.00822954 87.43579325 159 125 C159 125.66 159 126.32 159 127 C155.69090269 126.65792032 152.44801843 126.1102623 149.18896484 125.44433594 C147.59121603 125.12001039 145.98927111 124.81616248 144.38525391 124.52441406 C127.60337589 121.28078493 127.60337589 121.28078493 123.46875 116.0703125 C121.09928382 111.44656252 119.96343417 106.48479844 118.72363281 101.46582031 C117.55412826 97.48066647 115.64623647 94.01177362 113.5625 90.4375 C112.98858521 89.44931274 112.98858521 89.44931274 112.40307617 88.44116211 C109.07844832 82.88175149 105.28116571 77.86194401 101 73 C100.31421875 72.18273437 99.6284375 71.36546875 98.921875 70.5234375 C79.65260869 48.13504535 50.60127247 33.49683598 21.09814453 31.11572266 C14.06950618 30.7280598 7.03468359 30.89730389 0 31 C0 20.77 0 10.54 0 0 Z " fill="#F4C300" transform="translate(337,166)"/>
<path d="M0 0 C3.30909731 0.34207968 6.55198157 0.8897377 9.81103516 1.55566406 C11.40878397 1.87998961 13.01072889 2.18383752 14.61474609 2.47558594 C31.39662411 5.71921507 31.39662411 5.71921507 35.53125 10.9296875 C37.90071618 15.55343748 39.03656583 20.51520156 40.27636719 25.53417969 C41.44587174 29.51933353 43.35376353 32.98822638 45.4375 36.5625 C45.82010986 37.2212915 46.20271973 37.88008301 46.59692383 38.55883789 C49.92155168 44.11824851 53.71883429 49.13805599 58 54 C59.02867187 55.22589844 59.02867187 55.22589844 60.078125 56.4765625 C79.90849584 79.51688545 108.81938275 93.34861867 139 96 C142.49833628 96.2354123 145.99729897 96.40706328 149.5 96.5625 C152.635 96.706875 155.77 96.85125 159 97 C159 106.9 159 116.8 159 127 C113.4471097 127.71925616 75.62587913 115.28247123 42.15527344 83.60644531 C19.52753713 61.55860999 5.74124617 32.84560046 0 2 C0 1.34 0 0.68 0 0 Z " fill="#000000" transform="translate(363,204)"/>
</svg>
